<svg width="120" height="96" viewBox="0 0 120 96" fill="none" xmlns="http://www.w3.org/2000/svg">
<g filter="url(#filter0_d_5_220)">
<path d="M48.2941 64.0588C48.2941 61.0392 47.2156 58.6862 45.0588 57C42.9411 55.3137 39.196 53.5686 33.8235 51.7647C28.451 49.9607 24.0588 48.2156 20.647 46.5294C9.54901 41.0784 4 33.5882 4 24.0588C4 19.3137 5.37255 15.1372 8.11765 11.5294C10.902 7.88234 14.8235 5.05881 19.8823 3.05882C24.9412 1.0196 30.6274 -1.65589e-06 36.9412 0C43.098 1.61475e-06 48.6078 1.09804 53.4706 3.29412C55.8596 4.3644 57.9878 5.65822 59.8552 7.1756C61.1081 6.30207 62.4569 5.5181 63.9017 4.8237C68.9605 2.39233 74.9409 1.17665 81.8429 1.17665C92.2742 1.17665 100.49 3.88253 106.49 9.2943C112.49 14.7061 115.549 22.1178 115.666 31.5296L115.666 88.0001L94.9016 88.0001L94.9017 31.1178C94.6664 21.7453 90.3134 17.059 81.8429 17.059C77.5683 17.059 74.3331 18.2355 72.137 20.5884C69.9409 22.9413 68.8429 26.7649 68.8429 32.059L68.8429 46.1973C65.4265 42.0781 60.7454 38.6323 55.0671 35.8424C53.0413 34.8414 50.7467 33.843 48.1958 32.8445V31.9413C48.1958 30.085 48.3113 28.3006 48.5424 26.5882H48.3529C48.3529 23.098 47.2745 20.3921 45.1176 18.4706C43 16.549 40.1176 15.5882 36.4706 15.5882C32.7843 15.5882 29.8627 16.4117 27.7059 18.0588C25.5882 19.6666 24.5294 21.7255 24.5294 24.2353C24.5294 26.4313 25.7059 28.4313 28.0588 30.2353C30.4117 32 34.549 33.8431 40.4706 35.7647C46.3921 37.647 51.2549 39.6862 55.0588 41.8823C64.3137 47.2157 68.9411 54.5686 68.9411 63.9411C68.9411 71.4313 66.1176 77.3137 60.4705 81.5882C54.8235 85.8627 47.0784 87.9999 37.2352 87.9999L37.2353 72.4705C40.647 72.4705 43.3333 71.745 45.2941 70.2941C47.2941 68.8039 48.2941 66.7254 48.2941 64.0588Z" fill="url(#paint0_linear_5_220)"/>
</g>
<defs>
<filter id="filter0_d_5_220" x="0" y="0" width="119.666" height="96.0001" filterUnits="userSpaceOnUse" color-interpolation-filters="sRGB">
<feFlood flood-opacity="0" result="BackgroundImageFix"/>
<feColorMatrix in="SourceAlpha" type="matrix" values="0 0 0 0 0 0 0 0 0 0 0 0 0 0 0 0 0 0 127 0" result="hardAlpha"/>
<feOffset dy="4"/>
<feGaussianBlur stdDeviation="2"/>
<feComposite in2="hardAlpha" operator="out"/>
<feColorMatrix type="matrix" values="0 0 0 0 0 0 0 0 0 0 0 0 0 0 0 0 0 0 0.25 0"/>
<feBlend mode="normal" in2="BackgroundImageFix" result="effect1_dropShadow_5_220"/>
<feBlend mode="normal" in="SourceGraphic" in2="effect1_dropShadow_5_220" result="shape"/>
</filter>
<linearGradient id="paint0_linear_5_220" x1="4" y1="44.0004" x2="115.666" y2="44.0004" gradientUnits="userSpaceOnUse">
<stop stop-color="#1076FD"/>
<stop offset="1" stop-color="#FF05DD"/>
</linearGradient>
</defs>
</svg>
